# xmcd
#
# Track frame offsets:
#	150
#	17742
#	34957
#	50480
#	65812
#	81180
#	102267
#	119012
#	133860
#	147697
#	164512
#	181565
#	199625
#	215010
#	229840
#	243407
#	257877
#	275482
#	290027
#
# Disc length: 4067
#
# Revision: 2
# Processed by: cddbd v1.5.1PL0 Copyright (c) Steve Scherf et al.
# Submitted via: audiograbber 1.83.01
# Normalized: r1:DSETVAR1
#
DISCID=310fe113
DTITLE=Various Artist - NuTech  A7
DYEAR=1900
DGENRE=various
TTITLE0=Mark Chestnutt - Old Country
TTITLE1=Dwight Yoakam - Suspicious Minds
TTITLE2=Mary Chapin-Carpenter - Down At The Twist And Shout
TTITLE3=Mark Chestnutt - Brother Jukebox
TTITLE4=Billy Dean - Somewhere In My Broken Heart
TTITLE5=Shenandoah - Sunday In The South
TTITLE6=Holly Dunn - Daddy's Hands
TTITLE7=Hal Ketchum - Five O'Clock World
TTITLE8=Charly McClain - Sleepin' With The Radio On
TTITLE9=Eddie Rabbitt - Someone Could Lose A Heart Tonight
TTITLE10=Eddie Rabbitt - Drivin' My Life Away
TTITLE11=Eddie Rabbitt and Crystal Gayle - You And I
TTITLE12=Eddie Rabbitt - I Love A Rainy Night
TTITLE13=Earl Thomas Conley - Holding Her And Loving You
TTITLE14=Oak Ridge Boys - American Made
TTITLE15=Waylon Jennings - Loving Her Was Easier Than Anything I'll Ever Do Again
TTITLE16=Eddie Rabbitt - Step By Step
TTITLE17=John Anderson - Black Sheep
TTITLE18=Eddy Raven - In A Letter To You
EXTD=
EXTT0=
EXTT1=
EXTT2=
EXTT3=
EXTT4=
EXTT5=
EXTT6=
EXTT7=
EXTT8=
EXTT9=
EXTT10=
EXTT11=
EXTT12=
EXTT13=
EXTT14=
EXTT15=
EXTT16=
EXTT17=
EXTT18=
PLAYORDER=
